<svg width="70" height="70" viewBox="0 0 70 70" fill="none" xmlns="http://www.w3.org/2000/svg">
<circle cx="35" cy="35" r="35" fill="white"/>
<g clip-path="url(#clip0_142_15)">
<path d="M35 5C27.0453 5 19.4094 8.16266 13.7891 13.7867C8.16295 19.413 5.00156 27.0433 5 35C5 42.9533 8.16406 50.5892 13.7891 56.2133C19.4094 61.8373 27.0453 65 35 65C42.9547 65 50.5906 61.8373 56.2109 56.2133C61.8359 50.5892 65 42.9533 65 35C65 27.0467 61.8359 19.4108 56.2109 13.7867C50.5906 8.16266 42.9547 5 35 5Z" fill="url(#paint0_linear_142_15)"/>
<path d="M18.5797 34.6831C27.3265 30.8731 33.1578 28.3611 36.0734 27.1475C44.4078 23.682 46.1375 23.0801 47.2672 23.0597C47.5156 23.0558 48.0687 23.1172 48.4297 23.409C48.7297 23.6551 48.814 23.9879 48.8562 24.2215C48.8937 24.455 48.9453 24.987 48.9031 25.4023C48.4531 30.1461 46.4984 41.6576 45.5047 46.9709C45.0875 49.219 44.2578 49.9728 43.4562 50.0464C41.7125 50.2067 40.3906 48.8951 38.7031 47.7894C36.064 46.0583 34.5734 44.9811 32.0094 43.2922C29.0469 41.3403 30.9687 40.2673 32.6562 38.5142C33.0969 38.0553 40.775 31.0733 40.9203 30.44C40.939 30.3608 40.9578 30.0655 40.7797 29.9098C40.6062 29.7537 40.3484 29.8072 40.1609 29.8494C39.8937 29.9094 35.6797 32.6975 27.5047 38.2133C26.3094 39.0355 25.2265 39.4362 24.2515 39.4151C23.1828 39.3922 21.1203 38.8095 19.5875 38.3117C17.7125 37.7009 16.2172 37.378 16.3484 36.3406C16.414 35.8006 17.1594 35.248 18.5797 34.6831V34.6831Z" fill="white"/>
</g>
<rect x="5.5" y="5.5" width="59" height="59" stroke="url(#paint1_radial_142_15)"/>
<defs>
<linearGradient id="paint0_linear_142_15" x1="35" y1="5" x2="35" y2="65" gradientUnits="userSpaceOnUse">
<stop stop-color="#2AABEE"/>
<stop offset="1" stop-color="#229ED9"/>
</linearGradient>
<radialGradient id="paint1_radial_142_15" cx="0" cy="0" r="1" gradientUnits="userSpaceOnUse" gradientTransform="translate(35 35) rotate(90) scale(30)">
<stop stop-color="white"/>
<stop offset="1" stop-color="white" stop-opacity="0"/>
</radialGradient>
<clipPath id="clip0_142_15">
<rect x="5" y="5" width="60" height="60" fill="white"/>
</clipPath>
</defs>
</svg>
